<svg width="49" height="35" viewBox="0 0 49 35" fill="none" xmlns="http://www.w3.org/2000/svg">
<g clip-path="url(#clip0_8_3)">
<path d="M44.8419 17.9103L44.2105 17.454L39.6301 24.7593L42.0177 28.8609L42.0808 28.9009L44.9011 24.4017V23.5691C44.9011 23.5691 44.8419 20.316 44.8419 17.909V17.9103Z" fill="white"/>
<path d="M33.5134 5.39324L35.8312 6.90233C36.3902 7.2666 36.8033 7.819 36.998 8.46079V4.12566H33.5134V5.39457V5.39324Z" fill="white"/>
<path d="M26.6323 31.1746H21.4548C21.4548 31.1746 28.1385 24.5671 28.1385 21.3274C28.1385 17.7302 25.5339 15.0896 21.6942 15.0896C18.841 15.0896 17.9018 16.4186 16.4074 18.2025C16.0878 18.5868 15.8694 19.5141 15.8694 20.0092C15.8694 21.0806 16.6955 21.9319 17.736 21.9319C18.3753 21.9319 18.8292 21.6303 19.1225 21.3274C20.0354 20.4641 19.9696 19.1846 21.6929 19.0418C23.1806 18.919 24.1817 19.9718 24.2264 21.6183C24.258 22.8138 22.8715 23.8319 20.7458 26.0162L16.218 30.833C15.4985 31.4094 15.1512 32.1233 15.1512 32.9478C15.1512 34.2381 16.2141 34.8279 16.8402 34.8279H26.6323C27.6189 34.8279 28.4187 34.0313 28.4187 33.0146C28.4187 31.9978 27.6189 31.1746 26.6323 31.1746Z" fill="url(#paint0_linear_8_3)"/>
<path d="M42.0163 28.8622L39.6288 24.7606L39.5894 24.6925L37.8846 21.7504L34.692 16.2398C34.2842 15.5779 33.687 14.9268 32.7912 14.9268H32.3295C31.1614 14.9268 30.1748 15.5673 30.1748 16.8028V32.8451C30.1748 34.082 31.0443 35.0013 32.2111 35.0013C33.3779 35.0013 34.275 34.082 34.275 32.8451V23.8773L38.0937 29.7776C38.5278 30.4674 39.0711 30.8984 39.8314 30.8984C40.5917 30.8984 41.135 30.4674 41.5691 29.7776L42.0782 28.9676L42.0177 28.8636L42.0163 28.8622Z" fill="url(#paint1_linear_8_3)"/>
<path d="M4.1502 18.9524H7.43616C9.03705 18.9524 9.70923 19.6649 9.70923 20.9885C9.70923 22.4536 8.86341 22.7792 7.18886 22.7792H4.08706V19.0018L0.370953 22.0293C0.286765 22.088 0.186792 22.0827 0.111812 22.0346C0.0407785 22.1627 0 22.3055 0 22.4549V32.7037C0 33.9152 0.836617 34.8732 1.89554 34.8732L8.35039 34.7198C12.2414 34.7198 14.4619 32.6076 14.6487 29.4627V29.4066C14.6487 26.7861 13.966 25.2383 11.9718 24.3643C12.8768 23.9734 13.6884 22.503 13.6884 20.3054V20.2493C13.6884 18.9244 13.1675 17.8729 12.3796 16.971C11.443 15.8995 10.1933 15.2484 8.42537 15.159L4.08574 15.1483L4.14757 18.9524H4.1502ZM10.7392 28.7248V28.7808C10.7392 30.2459 9.87366 30.8397 8.19911 30.8397H4.08838V26.73H8.07678C10.046 26.73 10.7392 27.4012 10.7392 28.7248Z" fill="white"/>
<path d="M4.1502 18.9524H4.08838V19.0031L4.1502 18.9524Z" fill="url(#paint2_linear_8_3)"/>
<g style="mix-blend-mode:multiply" opacity="0.75">
<path d="M4.1502 18.9524H4.08838V19.0031L4.1502 18.9524Z" fill="#3B6C90"/>
</g>
<path d="M36.998 8.46071C36.8033 7.81891 36.3902 7.26518 35.8312 6.90225L33.5134 5.39316L25.9312 0.458922C25.0117 -0.158859 23.8147 -0.153521 22.9004 0.472265L0.565638 15.7393C0.159168 16.0168 0.051302 16.4919 0 17.4405V21.8331C0 21.9238 0.0473557 21.9958 0.111812 22.0372C0.16706 21.9398 0.240725 21.8544 0.33149 21.785L4.08706 18.9523V15.1482H8.0018C8.1465 15.1482 8.28856 15.1522 8.42668 15.1589H8.43063L22.7478 5.36914C22.7939 5.33845 22.8386 5.30376 22.882 5.26907C24.4092 4.03885 24.771 3.90675 26.2469 5.16499L33.787 10.3994C34.0751 10.5996 34.4065 10.7277 34.7525 10.7731C35.059 10.8131 35.3708 10.7677 35.651 10.6383C36.5652 10.214 37.023 9.70428 37.023 8.55545C37.0151 8.52343 37.0045 8.4914 36.9953 8.46071H36.998Z" fill="url(#paint3_linear_8_3)"/>
<path d="M4.08838 15.1483L8.428 15.159C8.28988 15.1523 8.14782 15.1483 8.00312 15.1483H4.08838Z" fill="url(#paint4_linear_8_3)"/>
<g style="mix-blend-mode:multiply" opacity="0.75">
<path d="M4.08838 15.1483L8.428 15.159C8.28988 15.1523 8.14782 15.1483 8.00312 15.1483H4.08838Z" fill="#3B6C90"/>
</g>
<path d="M0.37227 22.0306L4.08838 19.0031V18.9524L0.332807 21.7851C0.242041 21.8532 0.168377 21.9399 0.113129 22.0373C0.188109 22.084 0.288082 22.0907 0.37227 22.0319V22.0306Z" fill="url(#paint5_linear_8_3)"/>
<g style="mix-blend-mode:multiply" opacity="0.75">
<path d="M0.37227 22.0306L4.08838 19.0031V18.9524L0.332807 21.7851C0.242041 21.8532 0.168377 21.9399 0.113129 22.0373C0.188109 22.084 0.288082 22.0907 0.37227 22.0319V22.0306Z" fill="#3B6C90"/>
</g>
<path d="M4.08838 15.1483V18.9524H4.1502L4.08838 15.1483Z" fill="url(#paint6_linear_8_3)"/>
<g style="mix-blend-mode:multiply" opacity="0.75">
<path d="M4.08838 15.1483V18.9524H4.1502L4.08838 15.1483Z" fill="#3B6C90"/>
</g>
<path d="M47.5136 14.8441L42.849 11.8886C42.5478 11.6858 42.3676 11.3442 42.3676 10.9786V2.48981C42.3676 1.38367 41.4836 0.488358 40.3944 0.488358H35.4878C34.3973 0.488358 33.5147 1.38501 33.5147 2.48981V2.91678V4.12566H38.562L38.487 12.1288C38.4791 12.9 38.858 13.6219 39.492 14.0475L44.2131 17.454L44.8445 17.9103C44.8445 20.3174 44.9037 23.5704 44.9037 23.5704V32.5382C44.9037 33.7751 45.7995 34.6944 46.9676 34.6944C48.1358 34.6944 49.0039 33.7751 49.0039 32.5382V16.4959C49.0039 15.5059 47.8003 15.0376 47.5175 14.8427L47.5136 14.8441Z" fill="url(#paint7_linear_8_3)"/>
<path d="M7.60322 22.7805H4.08838V26.73H7.60322V22.7805Z" fill="url(#paint8_linear_8_3)"/>
<path d="M7.60322 30.8397H4.08838V34.7251H7.60322V30.8397Z" fill="url(#paint9_linear_8_3)"/>
</g>
<defs>
<linearGradient id="paint0_linear_8_3" x1="16.6297" y1="29.021" x2="32.4325" y2="20.0265" gradientUnits="userSpaceOnUse">
<stop stop-color="white"/>
<stop offset="1" stop-color="white" stop-opacity="0.9"/>
</linearGradient>
<linearGradient id="paint1_linear_8_3" x1="31.0903" y1="27.3505" x2="40.0273" y2="19.3752" gradientUnits="userSpaceOnUse">
<stop stop-color="white"/>
<stop offset="1" stop-color="white" stop-opacity="0.6"/>
</linearGradient>
<linearGradient id="paint2_linear_8_3" x1="4.08443" y1="18.9577" x2="4.13213" y2="18.9852" gradientUnits="userSpaceOnUse">
<stop stop-color="white"/>
<stop offset="1" stop-color="white" stop-opacity="0.9"/>
</linearGradient>
<linearGradient id="paint3_linear_8_3" x1="5.51168" y1="6.84621" x2="30.361" y2="20.9903" gradientUnits="userSpaceOnUse">
<stop stop-color="white"/>
<stop offset="1" stop-color="white" stop-opacity="0.6"/>
</linearGradient>
<linearGradient id="paint4_linear_8_3" x1="4.62771" y1="14.1996" x2="7.91042" y2="16.0671" gradientUnits="userSpaceOnUse">
<stop stop-color="white"/>
<stop offset="1" stop-color="white" stop-opacity="0.9"/>
</linearGradient>
<linearGradient id="paint5_linear_8_3" x1="1.26808" y1="20.0065" x2="2.96641" y2="20.9742" gradientUnits="userSpaceOnUse">
<stop stop-color="white"/>
<stop offset="1" stop-color="white" stop-opacity="0.9"/>
</linearGradient>
<linearGradient id="paint6_linear_8_3" x1="3.27544" y1="16.5747" x2="4.95916" y2="17.532" gradientUnits="userSpaceOnUse">
<stop stop-color="white"/>
<stop offset="1" stop-color="white" stop-opacity="0.9"/>
</linearGradient>
<linearGradient id="paint7_linear_8_3" x1="20.4366" y1="-53.2812" x2="43.2562" y2="14.3613" gradientUnits="userSpaceOnUse">
<stop stop-color="white" stop-opacity="0.6"/>
<stop offset="0.2" stop-color="white" stop-opacity="0.66"/>
<stop offset="0.59" stop-color="white" stop-opacity="0.81"/>
<stop offset="1" stop-color="white"/>
</linearGradient>
<linearGradient id="paint8_linear_8_3" x1="1.31807" y1="24.7553" x2="4.83292" y2="24.7553" gradientUnits="userSpaceOnUse">
<stop stop-color="#222D39"/>
<stop offset="1" stop-color="white"/>
</linearGradient>
<linearGradient id="paint9_linear_8_3" x1="3.28209e-06" y1="32.7824" x2="0.131547" y2="32.7824" gradientUnits="userSpaceOnUse">
<stop stop-color="#222D39"/>
<stop offset="1" stop-color="white"/>
</linearGradient>
<clipPath id="clip0_8_3">
<rect width="49" height="35" fill="white"/>
</clipPath>
</defs>
</svg>
