<svg width="18" height="18" viewBox="0 0 18 18" fill="none" xmlns="http://www.w3.org/2000/svg">
<path fill-rule="evenodd" clip-rule="evenodd" d="M8.66668 1.44443C6.70512 1.44443 6.45957 1.45261 5.6892 1.48776C4.92027 1.52291 4.39498 1.64521 3.93564 1.82383C3.45416 2.00487 3.01746 2.28895 2.65635 2.6568C2.28908 3.01749 2.00483 3.45389 1.82338 3.93561C1.64572 4.39495 1.52294 4.92072 1.48779 5.68965C1.45312 6.45954 1.44446 6.70461 1.44446 8.66665C1.44446 10.6287 1.45264 10.8738 1.48779 11.6441C1.52294 12.4131 1.64524 12.9384 1.82387 13.3977C2.0049 13.8792 2.28898 14.3159 2.65683 14.677C3.01753 15.0442 3.45393 15.3285 3.93564 15.5099C4.39498 15.6881 4.92027 15.8104 5.6892 15.8455C6.45957 15.8807 6.70512 15.8889 8.66668 15.8889C10.6282 15.8889 10.8738 15.8807 11.6442 15.8455C12.4131 15.8104 12.9384 15.6881 13.3977 15.5095C13.8792 15.3284 14.3159 15.0444 14.677 14.6765C15.0443 14.3158 15.3285 13.8794 15.51 13.3977C15.6881 12.9384 15.8104 12.4131 15.8456 11.6441C15.8807 10.8738 15.8889 10.6282 15.8889 8.66665C15.8889 6.70509 15.8807 6.45954 15.8456 5.68917C15.8104 4.92024 15.6881 4.39495 15.5095 3.93561C15.3282 3.45368 15.0439 3.0171 14.6765 2.65632C14.3158 2.28905 13.8794 2.0048 13.3977 1.82335C12.9384 1.64569 12.4126 1.52291 11.6437 1.48776C10.8738 1.45309 10.6287 1.44443 8.66668 1.44443ZM8.66668 2.74587C10.595 2.74587 10.8237 2.75309 11.5854 2.78776C12.2893 2.82002 12.6716 2.93702 12.9263 3.03669C13.2634 3.16717 13.5041 3.32413 13.7569 3.57643C14.0097 3.82921 14.1662 4.06995 14.2966 4.40698C14.3958 4.66169 14.5133 5.04398 14.5456 5.74791C14.5802 6.50961 14.5875 6.73832 14.5875 8.66665C14.5875 10.595 14.5802 10.8237 14.5456 11.5854C14.5133 12.2893 14.3963 12.6716 14.2966 12.9263C14.1811 13.24 13.9966 13.5238 13.7569 13.7569C13.5239 13.9966 13.2401 14.1811 12.9263 14.2966C12.6716 14.3958 12.2893 14.5133 11.5854 14.5455C10.8237 14.5802 10.5955 14.5874 8.66668 14.5874C6.73787 14.5874 6.50964 14.5802 5.74794 14.5455C5.04401 14.5133 4.66172 14.3963 4.40701 14.2966C4.09331 14.181 3.8095 13.9966 3.57646 13.7569C3.33677 13.5238 3.15233 13.24 3.03672 12.9263C2.93753 12.6716 2.82005 12.2893 2.78779 11.5854C2.75312 10.8237 2.7459 10.595 2.7459 8.66665C2.7459 6.73832 2.75312 6.50961 2.78779 5.74791C2.82005 5.04398 2.93705 4.66169 3.03672 4.40698C3.1672 4.06995 3.32416 3.82921 3.57646 3.57643C3.80947 3.33667 4.09328 3.15223 4.40701 3.03669C4.66172 2.9375 5.04401 2.82002 5.74794 2.78776C6.50964 2.75309 6.73835 2.74587 8.66668 2.74587Z" fill="white"/>
<path fill-rule="evenodd" clip-rule="evenodd" d="M8.66669 11.0765C8.35023 11.0765 8.03687 11.0141 7.7445 10.893C7.45212 10.7719 7.18647 10.5944 6.9627 10.3706C6.73892 10.1469 6.56142 9.88122 6.44031 9.58885C6.31921 9.29647 6.25688 8.98311 6.25688 8.66665C6.25688 8.35019 6.31921 8.03682 6.44031 7.74445C6.56142 7.45208 6.73892 7.18643 6.9627 6.96265C7.18647 6.73888 7.45212 6.56138 7.7445 6.44027C8.03687 6.31917 8.35023 6.25683 8.66669 6.25683C9.30581 6.25683 9.91876 6.51073 10.3707 6.96265C10.8226 7.41458 11.0765 8.02753 11.0765 8.66665C11.0765 9.30577 10.8226 9.91872 10.3707 10.3706C9.91876 10.8226 9.30581 11.0765 8.66669 11.0765ZM8.66669 4.95443C7.68215 4.95443 6.73793 5.34554 6.04175 6.04171C5.34558 6.73789 4.95447 7.68211 4.95447 8.66665C4.95447 9.65119 5.34558 10.5954 6.04175 11.2916C6.73793 11.9878 7.68215 12.3789 8.66669 12.3789C9.65123 12.3789 10.5955 11.9878 11.2916 11.2916C11.9878 10.5954 12.3789 9.65119 12.3789 8.66665C12.3789 7.68211 11.9878 6.73789 11.2916 6.04171C10.5955 5.34554 9.65123 4.95443 8.66669 4.95443ZM13.4589 4.88702C13.4589 5.11975 13.3664 5.34294 13.2019 5.50751C13.0373 5.67207 12.8141 5.76452 12.5814 5.76452C12.3486 5.76452 12.1255 5.67207 11.9609 5.50751C11.7963 5.34294 11.7039 5.11975 11.7039 4.88702C11.7039 4.65429 11.7963 4.4311 11.9609 4.26653C12.1255 4.10197 12.3486 4.00952 12.5814 4.00952C12.8141 4.00952 13.0373 4.10197 13.2019 4.26653C13.3664 4.4311 13.4589 4.65429 13.4589 4.88702Z" fill="white"/>
</svg>
