<svg width="18" height="18" viewBox="0 0 18 18" fill="none" xmlns="http://www.w3.org/2000/svg">
<path d="M1.44446 15.8889L2.46389 12.1833C1.83751 11.0962 1.50856 9.86327 1.51017 8.60864C1.50292 4.65509 4.71355 1.44445 8.65943 1.44445C10.5745 1.44445 12.3727 2.18694 13.7267 3.54135C14.3941 4.20526 14.9231 4.99501 15.283 5.86484C15.643 6.73467 15.8267 7.66728 15.8236 8.60864C15.8236 12.5545 12.613 15.7651 8.66668 15.7651C7.46546 15.7651 6.29327 15.4664 5.24482 14.8917L1.44446 15.8889ZM5.41252 13.603L5.631 13.734C6.54804 14.2766 7.59387 14.5632 8.65943 14.5639C11.9358 14.5639 14.6079 11.8922 14.6079 8.61547C14.6079 7.0285 13.9891 5.52901 12.8677 4.40802C12.3163 3.85344 11.6605 3.41349 10.9383 3.11351C10.216 2.81353 9.44151 2.65946 8.65943 2.66017C5.37582 2.6606 2.70456 5.33229 2.70456 8.60907C2.70456 9.73006 3.01777 10.8297 3.61475 11.7762L3.75301 12.0019L3.14877 14.2004L5.41295 13.6034L5.41252 13.603Z" fill="white"/>
<path fill-rule="evenodd" clip-rule="evenodd" d="M6.87574 5.60923C6.74474 5.31053 6.59923 5.30327 6.47548 5.30327C6.36624 5.29602 6.24932 5.29602 6.12557 5.29602C6.0095 5.29602 5.81278 5.33954 5.64551 5.52175C5.47781 5.70353 5.01951 6.13324 5.01951 7.01399C5.01951 7.89516 5.66002 8.7469 5.74749 8.86339C5.83454 8.97988 6.98498 10.8434 8.80536 11.5645C10.3194 12.1615 10.6253 12.045 10.953 12.0083C11.2803 11.972 12.0087 11.579 12.1615 11.1566C12.307 10.7418 12.307 10.3778 12.2635 10.3048C12.22 10.2323 12.0958 10.1884 11.9213 10.0936C11.7391 10.0066 10.8656 9.56961 10.6983 9.51115C10.5306 9.45312 10.4141 9.4241 10.2976 9.59863C10.1811 9.78084 9.83888 10.1811 9.73006 10.2976C9.62765 10.4141 9.51884 10.4286 9.34388 10.3411C9.1621 10.2541 8.58688 10.0646 7.90243 9.45312C7.37073 8.97946 7.014 8.39016 6.90476 8.21563C6.8032 8.03342 6.89025 7.93869 6.98498 7.85121C7.0652 7.77142 7.16719 7.64041 7.25467 7.53843C7.34172 7.43601 7.37073 7.35622 7.43645 7.23972C7.49448 7.12323 7.46547 7.01399 7.42194 6.92694C7.37799 6.84672 7.03619 5.96554 6.87574 5.6088V5.60923Z" fill="white"/>
</svg>
